<?xml version="1.0" ?><!DOCTYPE svg  PUBLIC '-//W3C//DTD SVG 1.1//EN'  'http://www.w3.org/Graphics/SVG/1.1/DTD/svg11.dtd'><svg enable-background="new 0 0 128 128" height="128px" id="Layer_1" version="1.1" viewBox="0 0 128 128" width="128px" xml:space="preserve" xmlns="http://www.w3.org/2000/svg" xmlns:xlink="http://www.w3.org/1999/xlink"><path d="M106.001,48.07c-5.935,0-10.86,4.334-11.817,10h-0.151c-8.822,0-15.999,7.178-15.999,16V78v15.82V108  c0,8.822-7.17,16-15.98,16c-8.811,0-15.979-7.178-15.979-16V69.823c16.886-2.861,29.986-41.059,31.939-53.514  c0.51-3.256-0.466-6.52-2.748-9.188C72.521,3.915,68.328,2,64.05,2h-5.62c0-1.104-5.993-2-5.993-2c-1.104,0-1.998,0.896-1.998,2v4  c0,1.104,0.895,2,1.998,2c0,0,5.993-0.896,5.993-2h5.62c3.078,0,6.21,1.426,8.175,3.722c1.068,1.25,2.254,3.299,1.836,5.969  C71.719,30.624,57.596,66,44.073,66c-13.525,0-27.647-35.376-29.988-50.31c-0.418-2.669,0.767-4.718,1.835-5.967  C17.884,7.426,21.017,6,24.095,6h6.366c0,1.104,5.993,2,5.993,2c1.103,0,1.998-0.896,1.998-2V2c0-1.104-0.895-2-1.998-2  c0,0-5.993,0.896-5.993,2h-6.366c-4.279,0-8.472,1.915-11.215,5.123c-2.282,2.668-3.258,5.931-2.747,9.187  c1.952,12.455,15.052,50.652,31.94,53.514V108c0,11.027,8.963,20,19.979,20c11.017,0,19.98-8.973,19.98-20V93.82V78v-3.93  c0-6.617,5.383-12,11.999-12h0.15c0.957,5.667,5.885,10,11.818,10c6.616,0,11.999-5.383,11.999-12  C118,53.454,112.617,48.07,106.001,48.07z M106.001,70.07c-4.829,0-8.868-3.441-9.798-8h6.354c0.692,1.19,1.969,2,3.444,2  c2.209,0,4-1.791,4-4s-1.791-4-4-4c-1.478,0-2.752,0.81-3.444,2h-6.354c0.93-4.559,4.969-8,9.798-8c5.515,0,9.999,4.486,9.999,10  C116,65.584,111.516,70.07,106.001,70.07z" fill="#221F1F"/></svg>